<svg xmlns="http://www.w3.org/2000/svg" xmlns:xlink="http://www.w3.org/1999/xlink" width="500" height="500" preserveAspectRatio="xMidYMid meet" version="1.0" viewBox="0 0 375 375" zoomAndPan="magnify"><defs><clipPath id="14671448cb"><path d="M 148 306.039062 L 164.527344 306.039062 L 164.527344 320.730469 L 148 320.730469 Z M 148 306.039062" clip-rule="nonzero"/></clipPath><clipPath id="6f5f538bfe"><path d="M 158.859375 306.722656 C 154.566406 305.097656 149.949219 306.761719 148.558594 310.429688 C 147.175781 314.101562 149.539062 318.402344 153.832031 320.027344 C 158.125 321.644531 162.742188 319.984375 164.128906 316.316406 C 165.515625 312.648438 163.152344 308.339844 158.859375 306.722656 Z M 158.859375 306.722656" clip-rule="nonzero"/></clipPath><clipPath id="b52b5f47b8"><path d="M 158.859375 306.722656 C 154.566406 305.097656 149.949219 306.761719 148.558594 310.429688 C 147.175781 314.101562 149.539062 318.402344 153.832031 320.027344 C 158.125 321.644531 162.742188 319.984375 164.128906 316.316406 C 165.515625 312.648438 163.152344 308.339844 158.859375 306.722656" clip-rule="nonzero"/></clipPath><clipPath id="7af5726008"><path d="M 148.777344 299.917969 L 142.503906 320.199219 L 163.914062 326.824219 L 170.1875 306.542969 Z M 148.777344 299.917969" clip-rule="nonzero"/></clipPath><linearGradient id="fa03044da8" x1=".427" x2=".47" y1="0" y2="0" gradientTransform="matrix(444.753529, 137.560956, -137.555142, 444.772299, -43.358377, 251.613155)" gradientUnits="userSpaceOnUse"><stop offset="0" stop-color="#3C93AD" stop-opacity="1"/><stop offset=".063" stop-color="#3C94AD" stop-opacity="1"/><stop offset=".094" stop-color="#3C94AD" stop-opacity="1"/><stop offset=".125" stop-color="#3C95AD" stop-opacity="1"/><stop offset=".188" stop-color="#3C96AD" stop-opacity="1"/><stop offset=".219" stop-color="#3C97AD" stop-opacity="1"/><stop offset=".25" stop-color="#3D97AD" stop-opacity="1"/><stop offset=".313" stop-color="#3D98AD" stop-opacity="1"/><stop offset=".375" stop-color="#3D99AD" stop-opacity="1"/><stop offset=".438" stop-color="#3D9AAD" stop-opacity="1"/><stop offset=".469" stop-color="#3D9AAD" stop-opacity="1"/><stop offset=".5" stop-color="#3D9BAD" stop-opacity="1"/><stop offset=".531" stop-color="#3D9BAD" stop-opacity="1"/><stop offset=".563" stop-color="#3D9CAD" stop-opacity="1"/><stop offset=".625" stop-color="#3D9DAD" stop-opacity="1"/><stop offset=".688" stop-color="#3E9EAD" stop-opacity="1"/><stop offset=".75" stop-color="#3E9FAD" stop-opacity="1"/><stop offset=".813" stop-color="#3EA0AD" stop-opacity="1"/><stop offset=".844" stop-color="#3EA0AE" stop-opacity="1"/><stop offset=".875" stop-color="#3EA1AE" stop-opacity="1"/><stop offset=".906" stop-color="#3EA1AE" stop-opacity="1"/><stop offset=".938" stop-color="#3EA2AE" stop-opacity="1"/><stop offset=".969" stop-color="#3EA3AE" stop-opacity="1"/><stop offset="1" stop-color="#3FA3AE" stop-opacity="1"/></linearGradient><clipPath id="37f4669c3d"><path d="M 210.234375 137.078125 L 238.394531 137.078125 L 238.394531 161.972656 L 210.234375 161.972656 Z M 210.234375 137.078125" clip-rule="nonzero"/></clipPath><clipPath id="ddba39d02a"><path d="M 237.5 154.425781 C 239.761719 148.230469 235.707031 141.03125 228.449219 138.382812 C 221.195312 135.734375 213.457031 138.621094 211.195312 144.824219 C 208.929688 151.019531 212.988281 158.21875 220.242188 160.867188 C 227.492188 163.515625 235.238281 160.625 237.5 154.425781 Z M 237.5 154.425781" clip-rule="nonzero"/></clipPath><clipPath id="c5c6a3d27a"><path d="M 237.5 154.425781 C 239.761719 148.230469 235.707031 141.03125 228.449219 138.382812 C 221.195312 135.734375 213.457031 138.621094 211.195312 144.824219 C 208.929688 151.019531 212.988281 158.21875 220.242188 160.867188 C 227.492188 163.515625 235.238281 160.625 237.5 154.425781" clip-rule="nonzero"/></clipPath><clipPath id="88fa90384d"><path d="M 211.621094 127.03125 L 201.089844 161.089844 L 237.070312 172.21875 L 247.605469 138.160156 Z M 211.621094 127.03125" clip-rule="nonzero"/></clipPath><linearGradient id="b709a878bc" x1=".448" x2=".521" y1="0" y2="0" gradientTransform="matrix(444.753529, 137.560956, -137.555142, 444.772299, 8.800343, 82.961278)" gradientUnits="userSpaceOnUse"><stop offset="0" stop-color="#3D9BAD" stop-opacity="1"/><stop offset=".016" stop-color="#3D9BAD" stop-opacity="1"/><stop offset=".031" stop-color="#3D9CAD" stop-opacity="1"/><stop offset=".063" stop-color="#3D9CAD" stop-opacity="1"/><stop offset=".078" stop-color="#3D9DAD" stop-opacity="1"/><stop offset=".094" stop-color="#3E9DAD" stop-opacity="1"/><stop offset=".125" stop-color="#3E9EAD" stop-opacity="1"/><stop offset=".156" stop-color="#3E9FAD" stop-opacity="1"/><stop offset=".188" stop-color="#3E9FAD" stop-opacity="1"/><stop offset=".203" stop-color="#3EA0AE" stop-opacity="1"/><stop offset=".219" stop-color="#3EA1AE" stop-opacity="1"/><stop offset=".234" stop-color="#3EA1AE" stop-opacity="1"/><stop offset=".25" stop-color="#3EA2AE" stop-opacity="1"/><stop offset=".281" stop-color="#3EA2AE" stop-opacity="1"/><stop offset=".297" stop-color="#3EA3AE" stop-opacity="1"/><stop offset=".313" stop-color="#3FA3AE" stop-opacity="1"/><stop offset=".344" stop-color="#3FA4AE" stop-opacity="1"/><stop offset=".359" stop-color="#3FA4AE" stop-opacity="1"/><stop offset=".375" stop-color="#3FA5AE" stop-opacity="1"/><stop offset=".391" stop-color="#3FA5AE" stop-opacity="1"/><stop offset=".406" stop-color="#3FA6AE" stop-opacity="1"/><stop offset=".422" stop-color="#3FA6AE" stop-opacity="1"/><stop offset=".438" stop-color="#3FA7AE" stop-opacity="1"/><stop offset=".453" stop-color="#3FA7AE" stop-opacity="1"/><stop offset=".469" stop-color="#3FA8AE" stop-opacity="1"/><stop offset=".5" stop-color="#3FA8AE" stop-opacity="1"/><stop offset=".516" stop-color="#3FA9AE" stop-opacity="1"/><stop offset=".531" stop-color="#40A9AE" stop-opacity="1"/><stop offset=".547" stop-color="#40A9AE" stop-opacity="1"/><stop offset=".563" stop-color="#40AAAE" stop-opacity="1"/><stop offset=".578" stop-color="#40AAAE" stop-opacity="1"/><stop offset=".594" stop-color="#40ABAE" stop-opacity="1"/><stop offset=".609" stop-color="#40ABAE" stop-opacity="1"/><stop offset=".625" stop-color="#40ACAE" stop-opacity="1"/><stop offset=".641" stop-color="#40ACAE" stop-opacity="1"/><stop offset=".656" stop-color="#41ADAE" stop-opacity="1"/><stop offset=".688" stop-color="#41ADAE" stop-opacity="1"/><stop offset=".719" stop-color="#41AEAE" stop-opacity="1"/><stop offset=".75" stop-color="#42AFAE" stop-opacity="1"/><stop offset=".781" stop-color="#42B0AE" stop-opacity="1"/><stop offset=".813" stop-color="#42B1AE" stop-opacity="1"/><stop offset=".844" stop-color="#42B2AE" stop-opacity="1"/><stop offset=".859" stop-color="#42B2AE" stop-opacity="1"/><stop offset=".875" stop-color="#42B3AD" stop-opacity="1"/><stop offset=".891" stop-color="#42B3AD" stop-opacity="1"/><stop offset=".906" stop-color="#42B4AD" stop-opacity="1"/><stop offset=".922" stop-color="#43B4AE" stop-opacity="1"/><stop offset=".938" stop-color="#43B5AE" stop-opacity="1"/><stop offset=".969" stop-color="#43B5AE" stop-opacity="1"/><stop offset="1" stop-color="#43B6AE" stop-opacity="1"/></linearGradient><clipPath id="e10363de19"><path d="M 210.234375 47.695312 L 232.679688 47.695312 L 232.679688 68.511719 L 210.234375 68.511719 Z M 210.234375 47.695312" clip-rule="nonzero"/></clipPath><clipPath id="c2907111fe"><path d="M 226.304688 49.59375 C 220.777344 46.496094 214.128906 47.824219 211.480469 52.550781 C 208.835938 57.273438 211.183594 63.632812 216.710938 66.730469 C 222.238281 69.824219 228.890625 68.5 231.535156 63.777344 C 234.179688 59.050781 231.832031 52.6875 226.304688 49.59375 Z M 226.304688 49.59375" clip-rule="nonzero"/></clipPath><clipPath id="b3e9cf1d57"><path d="M 226.304688 49.59375 C 220.777344 46.496094 214.128906 47.824219 211.480469 52.550781 C 208.835938 57.273438 211.183594 63.632812 216.710938 66.730469 C 222.238281 69.824219 228.890625 68.5 231.535156 63.777344 C 234.179688 59.050781 231.832031 52.6875 226.304688 49.59375" clip-rule="nonzero"/></clipPath><clipPath id="ea9774bbcd"><path d="M 211.046875 39.34375 L 202.25 67.789062 L 231.96875 76.980469 L 240.765625 48.535156 Z M 211.046875 39.34375" clip-rule="nonzero"/></clipPath><linearGradient id="4d4d9b793b" x1=".391" x2=".45" y1="0" y2="0" gradientTransform="matrix(444.753529, 137.560956, -137.555142, 444.772299, 34.36977, 0.28626)" gradientUnits="userSpaceOnUse"><stop offset="0" stop-color="#3987AC" stop-opacity="1"/><stop offset=".031" stop-color="#3987AC" stop-opacity="1"/><stop offset=".063" stop-color="#3988AC" stop-opacity="1"/><stop offset=".094" stop-color="#3989AC" stop-opacity="1"/><stop offset=".125" stop-color="#3989AC" stop-opacity="1"/><stop offset=".156" stop-color="#3A8AAC" stop-opacity="1"/><stop offset=".172" stop-color="#3A8AAC" stop-opacity="1"/><stop offset=".188" stop-color="#3A8BAC" stop-opacity="1"/><stop offset=".219" stop-color="#3A8BAC" stop-opacity="1"/><stop offset=".25" stop-color="#3A8CAC" stop-opacity="1"/><stop offset=".266" stop-color="#3A8CAC" stop-opacity="1"/><stop offset=".281" stop-color="#3A8DAC" stop-opacity="1"/><stop offset=".313" stop-color="#3A8DAC" stop-opacity="1"/><stop offset=".344" stop-color="#3A8EAC" stop-opacity="1"/><stop offset=".359" stop-color="#3B8EAC" stop-opacity="1"/><stop offset=".375" stop-color="#3B8FAC" stop-opacity="1"/><stop offset=".406" stop-color="#3B8FAC" stop-opacity="1"/><stop offset=".438" stop-color="#3B90AC" stop-opacity="1"/><stop offset=".453" stop-color="#3B90AC" stop-opacity="1"/><stop offset=".469" stop-color="#3B91AC" stop-opacity="1"/><stop offset=".5" stop-color="#3C91AD" stop-opacity="1"/><stop offset=".531" stop-color="#3C92AD" stop-opacity="1"/><stop offset=".563" stop-color="#3C92AD" stop-opacity="1"/><stop offset=".594" stop-color="#3C93AD" stop-opacity="1"/><stop offset=".625" stop-color="#3C94AD" stop-opacity="1"/><stop offset=".656" stop-color="#3C94AD" stop-opacity="1"/><stop offset=".688" stop-color="#3C95AD" stop-opacity="1"/><stop offset=".719" stop-color="#3C96AD" stop-opacity="1"/><stop offset=".734" stop-color="#3C96AD" stop-opacity="1"/><stop offset=".75" stop-color="#3C97AD" stop-opacity="1"/><stop offset=".766" stop-color="#3C97AD" stop-opacity="1"/><stop offset=".781" stop-color="#3D97AD" stop-opacity="1"/><stop offset=".813" stop-color="#3D97AD" stop-opacity="1"/><stop offset=".828" stop-color="#3D98AD" stop-opacity="1"/><stop offset=".844" stop-color="#3D99AD" stop-opacity="1"/><stop offset=".875" stop-color="#3D99AD" stop-opacity="1"/><stop offset=".906" stop-color="#3D9AAD" stop-opacity="1"/><stop offset=".938" stop-color="#3D9AAD" stop-opacity="1"/><stop offset=".969" stop-color="#3D9BAD" stop-opacity="1"/><stop offset="1" stop-color="#3D9CAD" stop-opacity="1"/></linearGradient><clipPath id="9076e12b85"><path d="M 48.21875 28.921875 L 368.507812 28.921875 L 368.507812 348.890625 L 48.21875 348.890625 Z M 48.21875 28.921875" clip-rule="nonzero"/></clipPath><clipPath id="cbca7993c2"><path d="M 336.796875 264.757812 L 335.480469 266.957031 C 315.03125 292.246094 215.941406 269.359375 139.269531 235.074219 C 141.242188 233.0625 142.90625 230.734375 144.183594 228.136719 C 145.691406 225.070312 146.554688 221.84375 146.828125 218.59375 C 220.402344 250.140625 313.378906 270.570312 338.902344 254.917969 C 341.867188 253.101562 343.59375 251.265625 345.285156 248.136719 C 342.832031 253.171875 339.609375 259.917969 336.796875 264.757812 Z M 259.609375 330.921875 L 252.707031 333.5 C 233.566406 338.816406 199.222656 332.980469 164.859375 321.636719 C 161.46875 324.902344 156.058594 326.046875 150.988281 324.128906 C 144.1875 321.554688 140.566406 314.464844 142.898438 308.292969 C 145.234375 302.117188 152.636719 299.191406 159.4375 301.761719 C 164.449219 303.65625 167.730469 308 168.179688 312.628906 C 211.304688 326.789062 254.164062 333.414062 272.136719 325.265625 C 268.390625 326.992188 263.449219 329.421875 259.609375 330.921875 Z M 250.828125 168.078125 C 252.519531 165.902344 253.894531 163.453125 254.871094 160.769531 C 256.167969 157.222656 256.652344 153.5625 256.433594 149.964844 C 273.054688 154.464844 289.382812 157.746094 304.355469 159.296875 C 338.339844 162.808594 356.300781 156.175781 352.390625 141.550781 C 353.882812 147.558594 356.152344 155.546875 356.796875 161.703125 C 357.589844 187.269531 307.535156 184.335938 250.828125 168.078125 Z M 265.636719 81.761719 C 253.941406 78.828125 242.574219 74.945312 232.230469 70.597656 C 226.914062 74.902344 218.851562 75.59375 211.984375 71.746094 C 203.226562 66.84375 199.738281 56.417969 204.191406 48.464844 C 208.644531 40.511719 219.351562 38.039062 228.113281 42.941406 C 234.566406 46.558594 238.152344 53.164062 237.820312 59.574219 C 268.875 73.011719 300.566406 75.898438 297.589844 64.523438 C 297.488281 64.128906 297.242188 63.191406 296.070312 61.441406 C 300.378906 64.59375 306.683594 68.257812 310.152344 72.308594 C 319.765625 88.113281 294.394531 88.976562 265.636719 81.761719 Z M 208.398438 28.957031 C 191.859375 28.957031 175.90625 31.464844 160.898438 36.132812 C 152.894531 47.785156 181.878906 69.417969 219.386719 85.695312 C 280.042969 112.011719 338.921875 115.734375 328.011719 92.558594 C 327.539062 91.546875 326.742188 90.273438 326.117188 89.347656 L 331.308594 96.519531 C 334.363281 101.386719 338.3125 107.960938 341.066406 113 L 342.421875 115.695312 C 354.777344 146.902344 276.8125 137.601562 207.371094 107.621094 C 158.765625 86.640625 129.214844 62.4375 132.054688 48.320312 C 124.152344 52.617188 116.652344 57.566406 109.628906 63.089844 C 108.625 83.246094 155.953125 113.519531 210.921875 134.917969 C 216.597656 130.097656 225.101562 128.484375 233.160156 131.429688 C 244.648438 135.625 250.875 147.488281 247.066406 157.917969 C 243.253906 168.355469 230.851562 173.410156 219.359375 169.214844 C 211.378906 166.300781 205.941406 159.691406 204.640625 152.425781 C 164.628906 136.789062 127.164062 116.613281 107.460938 97.105469 C 98.40625 88.136719 95.125 81.484375 94.527344 76.597656 C 88.167969 83.042969 82.351562 90.027344 77.15625 97.476562 C 86.355469 145.1875 280.433594 217.789062 340.882812 204.023438 C 357.578125 200.226562 358.246094 192.195312 358.496094 189.171875 C 358.015625 196.488281 357.226562 206.269531 355.941406 213.492188 L 354.371094 220.949219 C 333.097656 275.402344 85.546875 177.761719 62.339844 126.457031 C 62.113281 125.960938 61.917969 125.484375 61.734375 125.019531 C 57.945312 133.703125 54.902344 142.785156 52.695312 152.191406 C 58.941406 167.082031 78.058594 182.757812 103.738281 197.417969 C 109.859375 193.523438 118.230469 192.964844 125.722656 196.644531 C 136.703125 202.046875 141.628906 214.5 136.726562 224.472656 C 131.828125 234.4375 118.953125 238.144531 107.976562 232.75 C 99.648438 228.65625 94.808594 220.496094 95.09375 212.449219 C 72.925781 199.253906 56.171875 185.601562 49.230469 173.097656 C 48.71875 178.300781 48.453125 183.574219 48.453125 188.90625 C 48.453125 192.449219 48.582031 195.964844 48.808594 199.449219 C 83.71875 253.652344 285.273438 325.011719 318.929688 289.296875 C 314.492188 293.917969 308.566406 300.09375 303.699219 304.253906 L 295.664062 310.683594 C 254.382812 335.679688 90.402344 278.046875 53.988281 230.726562 C 56.226562 239.003906 59.097656 247.027344 62.574219 254.71875 C 77.007812 271.4375 105.519531 287.984375 137.308594 301.1875 C 136.429688 302.464844 135.691406 303.855469 135.125 305.355469 C 134.558594 306.855469 134.1875 308.398438 134.003906 309.957031 C 107.722656 298.671875 84.351562 284.980469 71.539062 271.726562 C 75.46875 278.214844 79.855469 284.394531 84.640625 290.234375 C 113.132812 317.582031 186.589844 344.40625 224.050781 340.542969 C 213.140625 341.84375 211.175781 342.082031 205.316406 342.191406 C 196.265625 342.253906 193.191406 342.222656 182.835938 341.160156 C 152.355469 336.597656 124.808594 323.40625 110.484375 313.488281 L 108.996094 312.421875 C 102.183594 307.257812 101.46875 306.71875 97.117188 302.902344 C 92.230469 298.328125 89.90625 296.152344 87.4375 293.558594 C 116.765625 327.433594 160.078125 348.859375 208.398438 348.859375 C 296.734375 348.859375 368.339844 277.246094 368.339844 188.90625 C 368.339844 100.570312 296.734375 28.957031 208.398438 28.957031 Z M 208.398438 28.957031" clip-rule="nonzero"/></clipPath><clipPath id="828fb1439d"><path d="M 336.796875 264.757812 L 335.480469 266.957031 C 315.03125 292.246094 215.941406 269.359375 139.269531 235.074219 C 141.242188 233.0625 142.90625 230.734375 144.183594 228.136719 C 145.691406 225.070312 146.554688 221.84375 146.828125 218.59375 C 220.402344 250.140625 313.378906 270.570312 338.902344 254.917969 C 341.867188 253.101562 343.59375 251.265625 345.285156 248.136719 C 342.832031 253.171875 339.609375 259.917969 336.796875 264.757812 Z M 259.609375 330.921875 L 252.707031 333.5 C 233.566406 338.816406 199.222656 332.980469 164.859375 321.636719 C 161.46875 324.902344 156.058594 326.046875 150.988281 324.128906 C 144.1875 321.554688 140.566406 314.464844 142.898438 308.292969 C 145.234375 302.117188 152.636719 299.191406 159.4375 301.761719 C 164.449219 303.65625 167.730469 308 168.179688 312.628906 C 211.304688 326.789062 254.164062 333.414062 272.136719 325.265625 C 268.390625 326.992188 263.449219 329.421875 259.609375 330.921875 Z M 250.828125 168.078125 C 252.519531 165.902344 253.894531 163.453125 254.871094 160.769531 C 256.167969 157.222656 256.652344 153.5625 256.433594 149.964844 C 273.054688 154.464844 289.382812 157.746094 304.355469 159.296875 C 338.339844 162.808594 356.300781 156.175781 352.390625 141.550781 C 353.882812 147.558594 356.152344 155.546875 356.796875 161.703125 C 357.589844 187.269531 307.535156 184.335938 250.828125 168.078125 Z M 265.636719 81.761719 C 253.941406 78.828125 242.574219 74.945312 232.230469 70.597656 C 226.914062 74.902344 218.851562 75.59375 211.984375 71.746094 C 203.226562 66.84375 199.738281 56.417969 204.191406 48.464844 C 208.644531 40.511719 219.351562 38.039062 228.113281 42.941406 C 234.566406 46.558594 238.152344 53.164062 237.820312 59.574219 C 268.875 73.011719 300.566406 75.898438 297.589844 64.523438 C 297.488281 64.128906 297.242188 63.191406 296.070312 61.441406 C 300.378906 64.59375 306.683594 68.257812 310.152344 72.308594 C 319.765625 88.113281 294.394531 88.976562 265.636719 81.761719 Z M 208.398438 28.957031 C 191.859375 28.957031 175.90625 31.464844 160.898438 36.132812 C 152.894531 47.785156 181.878906 69.417969 219.386719 85.695312 C 280.042969 112.011719 338.921875 115.734375 328.011719 92.558594 C 327.539062 91.546875 326.742188 90.273438 326.117188 89.347656 L 331.308594 96.519531 C 334.363281 101.386719 338.3125 107.960938 341.066406 113 L 342.421875 115.695312 C 354.777344 146.902344 276.8125 137.601562 207.371094 107.621094 C 158.765625 86.640625 129.214844 62.4375 132.054688 48.320312 C 124.152344 52.617188 116.652344 57.566406 109.628906 63.089844 C 108.625 83.246094 155.953125 113.519531 210.921875 134.917969 C 216.597656 130.097656 225.101562 128.484375 233.160156 131.429688 C 244.648438 135.625 250.875 147.488281 247.066406 157.917969 C 243.253906 168.355469 230.851562 173.410156 219.359375 169.214844 C 211.378906 166.300781 205.941406 159.691406 204.640625 152.425781 C 164.628906 136.789062 127.164062 116.613281 107.460938 97.105469 C 98.40625 88.136719 95.125 81.484375 94.527344 76.597656 C 88.167969 83.042969 82.351562 90.027344 77.15625 97.476562 C 86.355469 145.1875 280.433594 217.789062 340.882812 204.023438 C 357.578125 200.226562 358.246094 192.195312 358.496094 189.171875 C 358.015625 196.488281 357.226562 206.269531 355.941406 213.492188 L 354.371094 220.949219 C 333.097656 275.402344 85.546875 177.761719 62.339844 126.457031 C 62.113281 125.960938 61.917969 125.484375 61.734375 125.019531 C 57.945312 133.703125 54.902344 142.785156 52.695312 152.191406 C 58.941406 167.082031 78.058594 182.757812 103.738281 197.417969 C 109.859375 193.523438 118.230469 192.964844 125.722656 196.644531 C 136.703125 202.046875 141.628906 214.5 136.726562 224.472656 C 131.828125 234.4375 118.953125 238.144531 107.976562 232.75 C 99.648438 228.65625 94.808594 220.496094 95.09375 212.449219 C 72.925781 199.253906 56.171875 185.601562 49.230469 173.097656 C 48.71875 178.300781 48.453125 183.574219 48.453125 188.90625 C 48.453125 192.449219 48.582031 195.964844 48.808594 199.449219 C 83.71875 253.652344 285.273438 325.011719 318.929688 289.296875 C 314.492188 293.917969 308.566406 300.09375 303.699219 304.253906 L 295.664062 310.683594 C 254.382812 335.679688 90.402344 278.046875 53.988281 230.726562 C 56.226562 239.003906 59.097656 247.027344 62.574219 254.71875 C 77.007812 271.4375 105.519531 287.984375 137.308594 301.1875 C 136.429688 302.464844 135.691406 303.855469 135.125 305.355469 C 134.558594 306.855469 134.1875 308.398438 134.003906 309.957031 C 107.722656 298.671875 84.351562 284.980469 71.539062 271.726562 C 75.46875 278.214844 79.855469 284.394531 84.640625 290.234375 C 113.132812 317.582031 186.589844 344.40625 224.050781 340.542969 C 213.140625 341.84375 211.175781 342.082031 205.316406 342.191406 C 196.265625 342.253906 193.191406 342.222656 182.835938 341.160156 C 152.355469 336.597656 124.808594 323.40625 110.484375 313.488281 L 108.996094 312.421875 C 102.183594 307.257812 101.46875 306.71875 97.117188 302.902344 C 92.230469 298.328125 89.90625 296.152344 87.4375 293.558594 C 116.765625 327.433594 160.078125 348.859375 208.398438 348.859375 C 296.734375 348.859375 368.339844 277.246094 368.339844 188.90625 C 368.339844 100.570312 296.734375 28.957031 208.398438 28.957031" clip-rule="nonzero"/></clipPath><clipPath id="1dd7d49118"><path d="M 76.378906 -61.34375 L -41.84375 320.929688 L 340.414062 439.160156 L 458.636719 56.882812 Z M 76.378906 -61.34375" clip-rule="nonzero"/></clipPath><linearGradient id="48a2e12785" x1=".047" x2=".907" y1="0" y2="0" gradientTransform="matrix(444.753529, 137.560956, -137.555142, 444.772299, -3.680751, 123.321287)" gradientUnits="userSpaceOnUse"><stop offset="0" stop-color="#482A91" stop-opacity="1"/><stop offset=".004" stop-color="#472B91" stop-opacity="1"/><stop offset=".008" stop-color="#452B91" stop-opacity="1"/><stop offset=".012" stop-color="#442C91" stop-opacity="1"/><stop offset=".016" stop-color="#422C91" stop-opacity="1"/><stop offset=".02" stop-color="#412C91" stop-opacity="1"/><stop offset=".023" stop-color="#3F2D91" stop-opacity="1"/><stop offset=".027" stop-color="#3D2D92" stop-opacity="1"/><stop offset=".031" stop-color="#3C2D92" stop-opacity="1"/><stop offset=".035" stop-color="#3B2D92" stop-opacity="1"/><stop offset=".039" stop-color="#3A2E92" stop-opacity="1"/><stop offset=".043" stop-color="#382E92" stop-opacity="1"/><stop offset=".047" stop-color="#372F92" stop-opacity="1"/><stop offset=".051" stop-color="#362F92" stop-opacity="1"/><stop offset=".055" stop-color="#343092" stop-opacity="1"/><stop offset=".059" stop-color="#333092" stop-opacity="1"/><stop offset=".063" stop-color="#313092" stop-opacity="1"/><stop offset=".066" stop-color="#2F3092" stop-opacity="1"/><stop offset=".07" stop-color="#2E3192" stop-opacity="1"/><stop offset=".074" stop-color="#2E3292" stop-opacity="1"/><stop offset=".078" stop-color="#2E3393" stop-opacity="1"/><stop offset=".082" stop-color="#2E3493" stop-opacity="1"/><stop offset=".086" stop-color="#2E3594" stop-opacity="1"/><stop offset=".09" stop-color="#2E3694" stop-opacity="1"/><stop offset=".094" stop-color="#2E3695" stop-opacity="1"/><stop offset=".098" stop-color="#2E3795" stop-opacity="1"/><stop offset=".102" stop-color="#2E3896" stop-opacity="1"/><stop offset=".105" stop-color="#2E3996" stop-opacity="1"/><stop offset=".109" stop-color="#2E3A96" stop-opacity="1"/><stop offset=".113" stop-color="#2E3B97" stop-opacity="1"/><stop offset=".117" stop-color="#2F3C97" stop-opacity="1"/><stop offset=".121" stop-color="#2F3D97" stop-opacity="1"/><stop offset=".125" stop-color="#2F3E98" stop-opacity="1"/><stop offset=".129" stop-color="#2F3E98" stop-opacity="1"/><stop offset=".133" stop-color="#303F99" stop-opacity="1"/><stop offset=".137" stop-color="#304099" stop-opacity="1"/><stop offset=".141" stop-color="#304199" stop-opacity="1"/><stop offset=".145" stop-color="#30429A" stop-opacity="1"/><stop offset=".148" stop-color="#30439A" stop-opacity="1"/><stop offset=".152" stop-color="#30449B" stop-opacity="1"/><stop offset=".156" stop-color="#30459B" stop-opacity="1"/><stop offset=".16" stop-color="#30469C" stop-opacity="1"/><stop offset=".164" stop-color="#30479C" stop-opacity="1"/><stop offset=".168" stop-color="#30489D" stop-opacity="1"/><stop offset=".172" stop-color="#30499D" stop-opacity="1"/><stop offset=".176" stop-color="#304A9D" stop-opacity="1"/><stop offset=".18" stop-color="#304B9D" stop-opacity="1"/><stop offset=".184" stop-color="#304C9E" stop-opacity="1"/><stop offset=".188" stop-color="#314D9E" stop-opacity="1"/><stop offset=".191" stop-color="#314E9F" stop-opacity="1"/><stop offset=".195" stop-color="#314F9F" stop-opacity="1"/><stop offset=".199" stop-color="#31509F" stop-opacity="1"/><stop offset=".203" stop-color="#31519F" stop-opacity="1"/><stop offset=".207" stop-color="#3152A0" stop-opacity="1"/><stop offset=".211" stop-color="#3153A0" stop-opacity="1"/><stop offset=".215" stop-color="#3154A0" stop-opacity="1"/><stop offset=".219" stop-color="#3255A1" stop-opacity="1"/><stop offset=".223" stop-color="#3256A1" stop-opacity="1"/><stop offset=".227" stop-color="#3257A1" stop-opacity="1"/><stop offset=".23" stop-color="#3258A1" stop-opacity="1"/><stop offset=".234" stop-color="#3259A2" stop-opacity="1"/><stop offset=".238" stop-color="#335AA2" stop-opacity="1"/><stop offset=".242" stop-color="#335BA2" stop-opacity="1"/><stop offset=".246" stop-color="#335CA2" stop-opacity="1"/><stop offset=".25" stop-color="#335DA3" stop-opacity="1"/><stop offset=".254" stop-color="#335EA3" stop-opacity="1"/><stop offset=".258" stop-color="#335FA4" stop-opacity="1"/><stop offset=".262" stop-color="#3360A4" stop-opacity="1"/><stop offset=".266" stop-color="#3361A4" stop-opacity="1"/><stop offset=".27" stop-color="#3462A4" stop-opacity="1"/><stop offset=".273" stop-color="#3463A5" stop-opacity="1"/><stop offset=".277" stop-color="#3464A5" stop-opacity="1"/><stop offset=".281" stop-color="#3465A5" stop-opacity="1"/><stop offset=".285" stop-color="#3466A6" stop-opacity="1"/><stop offset=".289" stop-color="#3467A6" stop-opacity="1"/><stop offset=".293" stop-color="#3468A6" stop-opacity="1"/><stop offset=".297" stop-color="#346AA6" stop-opacity="1"/><stop offset=".301" stop-color="#346BA7" stop-opacity="1"/><stop offset=".305" stop-color="#356CA7" stop-opacity="1"/><stop offset=".309" stop-color="#356DA7" stop-opacity="1"/><stop offset=".313" stop-color="#356EA7" stop-opacity="1"/><stop offset=".316" stop-color="#356FA8" stop-opacity="1"/><stop offset=".32" stop-color="#3570A8" stop-opacity="1"/><stop offset=".324" stop-color="#3671A8" stop-opacity="1"/><stop offset=".328" stop-color="#3672A8" stop-opacity="1"/><stop offset=".332" stop-color="#3773A9" stop-opacity="1"/><stop offset=".336" stop-color="#3774A9" stop-opacity="1"/><stop offset=".34" stop-color="#3775A9" stop-opacity="1"/><stop offset=".344" stop-color="#3777A9" stop-opacity="1"/><stop offset=".348" stop-color="#3778AA" stop-opacity="1"/><stop offset=".352" stop-color="#3779AA" stop-opacity="1"/><stop offset=".355" stop-color="#377AAA" stop-opacity="1"/><stop offset=".359" stop-color="#377BAA" stop-opacity="1"/><stop offset=".363" stop-color="#387CAA" stop-opacity="1"/><stop offset=".367" stop-color="#387DAA" stop-opacity="1"/><stop offset=".371" stop-color="#387EAB" stop-opacity="1"/><stop offset=".375" stop-color="#3880AB" stop-opacity="1"/><stop offset=".379" stop-color="#3881AB" stop-opacity="1"/><stop offset=".383" stop-color="#3882AB" stop-opacity="1"/><stop offset=".387" stop-color="#3983AB" stop-opacity="1"/><stop offset=".391" stop-color="#3984AB" stop-opacity="1"/><stop offset=".395" stop-color="#3985AC" stop-opacity="1"/><stop offset=".398" stop-color="#3987AC" stop-opacity="1"/><stop offset=".402" stop-color="#3988AC" stop-opacity="1"/><stop offset=".406" stop-color="#3989AC" stop-opacity="1"/><stop offset=".41" stop-color="#3A8AAC" stop-opacity="1"/><stop offset=".414" stop-color="#3A8BAC" stop-opacity="1"/><stop offset=".418" stop-color="#3A8CAC" stop-opacity="1"/><stop offset=".422" stop-color="#3A8EAC" stop-opacity="1"/><stop offset=".426" stop-color="#3A8FAC" stop-opacity="1"/><stop offset=".43" stop-color="#3B90AC" stop-opacity="1"/><stop offset=".434" stop-color="#3B91AD" stop-opacity="1"/><stop offset=".438" stop-color="#3C92AD" stop-opacity="1"/><stop offset=".441" stop-color="#3C93AD" stop-opacity="1"/><stop offset=".445" stop-color="#3C95AD" stop-opacity="1"/><stop offset=".449" stop-color="#3C96AD" stop-opacity="1"/><stop offset=".453" stop-color="#3D97AD" stop-opacity="1"/><stop offset=".457" stop-color="#3D98AD" stop-opacity="1"/><stop offset=".461" stop-color="#3D9AAD" stop-opacity="1"/><stop offset=".465" stop-color="#3D9BAD" stop-opacity="1"/><stop offset=".469" stop-color="#3D9CAD" stop-opacity="1"/><stop offset=".473" stop-color="#3D9DAD" stop-opacity="1"/><stop offset=".477" stop-color="#3E9EAD" stop-opacity="1"/><stop offset=".48" stop-color="#3E9FAD" stop-opacity="1"/><stop offset=".484" stop-color="#3EA1AE" stop-opacity="1"/><stop offset=".488" stop-color="#3EA2AE" stop-opacity="1"/><stop offset=".492" stop-color="#3FA3AE" stop-opacity="1"/><stop offset=".496" stop-color="#3FA4AE" stop-opacity="1"/><stop offset=".5" stop-color="#3FA6AE" stop-opacity="1"/><stop offset=".504" stop-color="#3FA7AE" stop-opacity="1"/><stop offset=".508" stop-color="#3FA8AE" stop-opacity="1"/><stop offset=".512" stop-color="#3FA9AE" stop-opacity="1"/><stop offset=".516" stop-color="#40ABAE" stop-opacity="1"/><stop offset=".52" stop-color="#41ACAE" stop-opacity="1"/><stop offset=".523" stop-color="#41ADAE" stop-opacity="1"/><stop offset=".527" stop-color="#42AEAE" stop-opacity="1"/><stop offset=".531" stop-color="#42B0AE" stop-opacity="1"/><stop offset=".535" stop-color="#42B1AE" stop-opacity="1"/><stop offset=".539" stop-color="#42B3AE" stop-opacity="1"/><stop offset=".543" stop-color="#43B4AE" stop-opacity="1"/><stop offset=".547" stop-color="#43B5AE" stop-opacity="1"/><stop offset=".551" stop-color="#43B6AD" stop-opacity="1"/><stop offset=".555" stop-color="#43B8AD" stop-opacity="1"/><stop offset=".559" stop-color="#43B9AD" stop-opacity="1"/><stop offset=".563" stop-color="#44BAAD" stop-opacity="1"/><stop offset=".566" stop-color="#44BBAD" stop-opacity="1"/><stop offset=".57" stop-color="#44BDAD" stop-opacity="1"/><stop offset=".578" stop-color="#44BDAD" stop-opacity="1"/><stop offset=".594" stop-color="#44BEAD" stop-opacity="1"/><stop offset=".625" stop-color="#44BEAD" stop-opacity="1"/><stop offset=".75" stop-color="#44BEAD" stop-opacity="1"/><stop offset="1" stop-color="#44BEAD" stop-opacity="1"/></linearGradient><clipPath id="a53bea711c"><path d="M 101.269531 201.152344 L 129 201.152344 L 129 226.457031 L 101.269531 226.457031 Z M 101.269531 201.152344" clip-rule="nonzero"/></clipPath><clipPath id="4b2c31a642"><path d="M 127.585938 219.976562 C 130.5 214.058594 127.230469 206.464844 120.300781 203.0625 C 113.371094 199.652344 105.367188 201.699219 102.457031 207.621094 C 99.542969 213.542969 102.8125 221.128906 109.742188 224.539062 C 116.671875 227.945312 124.675781 225.902344 127.585938 219.976562 Z M 127.585938 219.976562" clip-rule="nonzero"/></clipPath><clipPath id="f4705d9043"><path d="M 127.585938 219.976562 C 130.5 214.058594 127.230469 206.464844 120.300781 203.0625 C 113.371094 199.652344 105.367188 201.699219 102.457031 207.621094 C 99.542969 213.542969 102.8125 221.128906 109.742188 224.539062 C 116.671875 227.945312 124.675781 225.902344 127.585938 219.976562" clip-rule="nonzero"/></clipPath><clipPath id="f53dc8a2fd"><path d="M 102.246094 190.914062 L 91.558594 225.476562 L 127.796875 236.683594 L 138.484375 202.125 Z M 102.246094 190.914062" clip-rule="nonzero"/></clipPath><linearGradient id="51e6182c19" x1=".265" x2=".338" y1="0" y2="0" gradientTransform="matrix(444.753529, 137.560956, -137.555142, 444.772299, -18.85905, 172.399046)" gradientUnits="userSpaceOnUse"><stop offset="0" stop-color="#335EA3" stop-opacity="1"/><stop offset=".016" stop-color="#335EA3" stop-opacity="1"/><stop offset=".031" stop-color="#335EA4" stop-opacity="1"/><stop offset=".063" stop-color="#335FA4" stop-opacity="1"/><stop offset=".125" stop-color="#335FA4" stop-opacity="1"/><stop offset=".141" stop-color="#3360A4" stop-opacity="1"/><stop offset=".156" stop-color="#3361A4" stop-opacity="1"/><stop offset=".172" stop-color="#3361A4" stop-opacity="1"/><stop offset=".188" stop-color="#3362A4" stop-opacity="1"/><stop offset=".219" stop-color="#3362A5" stop-opacity="1"/><stop offset=".25" stop-color="#3463A5" stop-opacity="1"/><stop offset=".266" stop-color="#3463A5" stop-opacity="1"/><stop offset=".281" stop-color="#3464A5" stop-opacity="1"/><stop offset=".313" stop-color="#3464A5" stop-opacity="1"/><stop offset=".344" stop-color="#3465A5" stop-opacity="1"/><stop offset=".375" stop-color="#3466A6" stop-opacity="1"/><stop offset=".406" stop-color="#3466A6" stop-opacity="1"/><stop offset=".438" stop-color="#3467A6" stop-opacity="1"/><stop offset=".469" stop-color="#3468A6" stop-opacity="1"/><stop offset=".5" stop-color="#3469A6" stop-opacity="1"/><stop offset=".516" stop-color="#3469A6" stop-opacity="1"/><stop offset=".531" stop-color="#346AA6" stop-opacity="1"/><stop offset=".547" stop-color="#346AA6" stop-opacity="1"/><stop offset=".563" stop-color="#346AA7" stop-opacity="1"/><stop offset=".594" stop-color="#346BA7" stop-opacity="1"/><stop offset=".609" stop-color="#356BA7" stop-opacity="1"/><stop offset=".625" stop-color="#356CA7" stop-opacity="1"/><stop offset=".688" stop-color="#356DA7" stop-opacity="1"/><stop offset=".703" stop-color="#356DA7" stop-opacity="1"/><stop offset=".719" stop-color="#356EA7" stop-opacity="1"/><stop offset=".734" stop-color="#356EA8" stop-opacity="1"/><stop offset=".75" stop-color="#356FA8" stop-opacity="1"/><stop offset=".781" stop-color="#356FA8" stop-opacity="1"/><stop offset=".797" stop-color="#3570A8" stop-opacity="1"/><stop offset=".813" stop-color="#3670A8" stop-opacity="1"/><stop offset=".844" stop-color="#3670A8" stop-opacity="1"/><stop offset=".859" stop-color="#3671A8" stop-opacity="1"/><stop offset=".875" stop-color="#3672A8" stop-opacity="1"/><stop offset=".906" stop-color="#3672A8" stop-opacity="1"/><stop offset=".922" stop-color="#3673A8" stop-opacity="1"/><stop offset=".938" stop-color="#3673A9" stop-opacity="1"/><stop offset=".969" stop-color="#3674A9" stop-opacity="1"/><stop offset=".984" stop-color="#3674A9" stop-opacity="1"/><stop offset="1" stop-color="#3775A9" stop-opacity="1"/></linearGradient><clipPath id="a96e70c336"><path d="M 6.257812 4.761719 L 322.464844 4.761719 L 322.464844 373.011719 L 6.257812 373.011719 Z M 6.257812 4.761719" clip-rule="nonzero"/></clipPath><clipPath id="2a84bb442a"><path d="M 206.722656 361.84375 C 111.214844 361.84375 33.792969 284.417969 33.792969 188.90625 C 33.792969 93.398438 111.214844 15.96875 206.722656 15.96875 C 251.089844 15.96875 291.554688 32.691406 322.167969 60.164062 C 288.738281 25.992188 242.125 4.773438 190.550781 4.773438 C 88.855469 4.773438 6.421875 87.210938 6.421875 188.90625 C 6.421875 290.601562 88.855469 373.042969 190.550781 373.042969 C 242.125 373.042969 288.738281 351.824219 322.167969 317.648438 C 291.554688 345.125 251.089844 361.84375 206.722656 361.84375 Z M 206.722656 361.84375" clip-rule="nonzero"/></clipPath><clipPath id="747398a23d"><path d="M 206.722656 361.84375 C 111.214844 361.84375 33.792969 284.417969 33.792969 188.90625 C 33.792969 93.398438 111.214844 15.96875 206.722656 15.96875 C 251.089844 15.96875 291.554688 32.691406 322.167969 60.164062 C 288.738281 25.992188 242.125 4.773438 190.550781 4.773438 C 88.855469 4.773438 6.421875 87.210938 6.421875 188.90625 C 6.421875 290.601562 88.855469 373.042969 190.550781 373.042969 C 242.125 373.042969 288.738281 351.824219 322.167969 317.648438 C 291.554688 345.125 251.089844 361.84375 206.722656 361.84375" clip-rule="nonzero"/></clipPath><clipPath id="e5df007667"><path d="M 33.984375 -84.355469 L -97.527344 340.890625 L 294.601562 462.171875 L 426.117188 36.925781 Z M 33.984375 -84.355469" clip-rule="nonzero"/></clipPath><linearGradient id="98a580add4" x1="-.055" x2=".827" y1="0" y2="0" gradientTransform="matrix(444.753529, 137.560956, -137.555142, 444.772299, -5.239772, 128.361727)" gradientUnits="userSpaceOnUse"><stop offset="0" stop-color="#5E2590" stop-opacity="1"/><stop offset=".063" stop-color="#5E2590" stop-opacity="1"/><stop offset=".066" stop-color="#5C2591" stop-opacity="1"/><stop offset=".07" stop-color="#5A2691" stop-opacity="1"/><stop offset=".074" stop-color="#592691" stop-opacity="1"/><stop offset=".078" stop-color="#572691" stop-opacity="1"/><stop offset=".082" stop-color="#562791" stop-opacity="1"/><stop offset=".086" stop-color="#542791" stop-opacity="1"/><stop offset=".09" stop-color="#532891" stop-opacity="1"/><stop offset=".094" stop-color="#512891" stop-opacity="1"/><stop offset=".098" stop-color="#502891" stop-opacity="1"/><stop offset=".102" stop-color="#4F2991" stop-opacity="1"/><stop offset=".105" stop-color="#4D2991" stop-opacity="1"/><stop offset=".109" stop-color="#4B2A91" stop-opacity="1"/><stop offset=".113" stop-color="#492A91" stop-opacity="1"/><stop offset=".117" stop-color="#482A91" stop-opacity="1"/><stop offset=".121" stop-color="#462B91" stop-opacity="1"/><stop offset=".125" stop-color="#442B91" stop-opacity="1"/><stop offset=".129" stop-color="#432C91" stop-opacity="1"/><stop offset=".133" stop-color="#412C91" stop-opacity="1"/><stop offset=".137" stop-color="#402C91" stop-opacity="1"/><stop offset=".141" stop-color="#3E2D91" stop-opacity="1"/><stop offset=".145" stop-color="#3D2D92" stop-opacity="1"/><stop offset=".148" stop-color="#3B2E92" stop-opacity="1"/><stop offset=".152" stop-color="#3A2E92" stop-opacity="1"/><stop offset=".156" stop-color="#382E92" stop-opacity="1"/><stop offset=".16" stop-color="#372E92" stop-opacity="1"/><stop offset=".164" stop-color="#352F92" stop-opacity="1"/><stop offset=".168" stop-color="#342F92" stop-opacity="1"/><stop offset=".172" stop-color="#323092" stop-opacity="1"/><stop offset=".176" stop-color="#313092" stop-opacity="1"/><stop offset=".18" stop-color="#2F3192" stop-opacity="1"/><stop offset=".184" stop-color="#2F3192" stop-opacity="1"/><stop offset=".188" stop-color="#2E3292" stop-opacity="1"/><stop offset=".191" stop-color="#2E3392" stop-opacity="1"/><stop offset=".195" stop-color="#2E3493" stop-opacity="1"/><stop offset=".199" stop-color="#2E3593" stop-opacity="1"/><stop offset=".203" stop-color="#2E3694" stop-opacity="1"/><stop offset=".207" stop-color="#2E3794" stop-opacity="1"/><stop offset=".211" stop-color="#2E3795" stop-opacity="1"/><stop offset=".215" stop-color="#2E3895" stop-opacity="1"/><stop offset=".219" stop-color="#2E3996" stop-opacity="1"/><stop offset=".223" stop-color="#2E3A96" stop-opacity="1"/><stop offset=".227" stop-color="#2E3B97" stop-opacity="1"/><stop offset=".23" stop-color="#2E3C97" stop-opacity="1"/><stop offset=".234" stop-color="#2F3D98" stop-opacity="1"/><stop offset=".238" stop-color="#2F3E98" stop-opacity="1"/><stop offset=".242" stop-color="#2F3F98" stop-opacity="1"/><stop offset=".246" stop-color="#2F4098" stop-opacity="1"/><stop offset=".25" stop-color="#304199" stop-opacity="1"/><stop offset=".254" stop-color="#30429A" stop-opacity="1"/><stop offset=".258" stop-color="#30439A" stop-opacity="1"/><stop offset=".262" stop-color="#30449A" stop-opacity="1"/><stop offset=".266" stop-color="#30459B" stop-opacity="1"/><stop offset=".27" stop-color="#30469B" stop-opacity="1"/><stop offset=".273" stop-color="#30479C" stop-opacity="1"/><stop offset=".277" stop-color="#30489C" stop-opacity="1"/><stop offset=".281" stop-color="#30499C" stop-opacity="1"/><stop offset=".285" stop-color="#304A9D" stop-opacity="1"/><stop offset=".289" stop-color="#304B9D" stop-opacity="1"/><stop offset=".293" stop-color="#304C9E" stop-opacity="1"/><stop offset=".297" stop-color="#314D9E" stop-opacity="1"/><stop offset=".301" stop-color="#314E9F" stop-opacity="1"/><stop offset=".305" stop-color="#314F9F" stop-opacity="1"/><stop offset=".309" stop-color="#31509F" stop-opacity="1"/><stop offset=".313" stop-color="#31519F" stop-opacity="1"/><stop offset=".316" stop-color="#31529F" stop-opacity="1"/><stop offset=".32" stop-color="#3153A0" stop-opacity="1"/><stop offset=".324" stop-color="#3154A0" stop-opacity="1"/><stop offset=".328" stop-color="#3255A1" stop-opacity="1"/><stop offset=".332" stop-color="#3256A1" stop-opacity="1"/><stop offset=".336" stop-color="#3257A1" stop-opacity="1"/><stop offset=".34" stop-color="#3258A1" stop-opacity="1"/><stop offset=".344" stop-color="#3259A2" stop-opacity="1"/><stop offset=".348" stop-color="#325AA2" stop-opacity="1"/><stop offset=".352" stop-color="#335BA2" stop-opacity="1"/><stop offset=".355" stop-color="#335CA2" stop-opacity="1"/><stop offset=".359" stop-color="#335DA3" stop-opacity="1"/><stop offset=".363" stop-color="#335EA3" stop-opacity="1"/><stop offset=".367" stop-color="#335FA4" stop-opacity="1"/><stop offset=".371" stop-color="#3360A4" stop-opacity="1"/><stop offset=".375" stop-color="#3361A4" stop-opacity="1"/><stop offset=".379" stop-color="#3362A4" stop-opacity="1"/><stop offset=".383" stop-color="#3463A5" stop-opacity="1"/><stop offset=".387" stop-color="#3464A5" stop-opacity="1"/><stop offset=".391" stop-color="#3466A5" stop-opacity="1"/><stop offset=".395" stop-color="#3467A5" stop-opacity="1"/><stop offset=".398" stop-color="#3468A6" stop-opacity="1"/><stop offset=".402" stop-color="#3469A7" stop-opacity="1"/><stop offset=".406" stop-color="#346AA7" stop-opacity="1"/><stop offset=".41" stop-color="#356BA7" stop-opacity="1"/><stop offset=".414" stop-color="#356CA7" stop-opacity="1"/><stop offset=".418" stop-color="#356DA7" stop-opacity="1"/><stop offset=".422" stop-color="#356EA8" stop-opacity="1"/><stop offset=".426" stop-color="#356FA8" stop-opacity="1"/><stop offset=".43" stop-color="#3671A8" stop-opacity="1"/><stop offset=".434" stop-color="#3672A8" stop-opacity="1"/><stop offset=".438" stop-color="#3673A8" stop-opacity="1"/><stop offset=".441" stop-color="#3774A9" stop-opacity="1"/><stop offset=".445" stop-color="#3775A9" stop-opacity="1"/><stop offset=".449" stop-color="#3777A9" stop-opacity="1"/><stop offset=".453" stop-color="#3778A9" stop-opacity="1"/><stop offset=".457" stop-color="#3779AA" stop-opacity="1"/><stop offset=".461" stop-color="#377AAA" stop-opacity="1"/><stop offset=".465" stop-color="#387BAA" stop-opacity="1"/><stop offset=".469" stop-color="#387CAA" stop-opacity="1"/><stop offset=".473" stop-color="#387DAA" stop-opacity="1"/><stop offset=".477" stop-color="#387EAA" stop-opacity="1"/><stop offset=".48" stop-color="#387FAB" stop-opacity="1"/><stop offset=".484" stop-color="#3881AB" stop-opacity="1"/><stop offset=".488" stop-color="#3982AB" stop-opacity="1"/><stop offset=".492" stop-color="#3983AB" stop-opacity="1"/><stop offset=".496" stop-color="#3984AC" stop-opacity="1"/><stop offset=".5" stop-color="#3985AC" stop-opacity="1"/><stop offset=".504" stop-color="#3986AC" stop-opacity="1"/><stop offset=".508" stop-color="#3988AC" stop-opacity="1"/><stop offset=".512" stop-color="#3989AC" stop-opacity="1"/><stop offset=".516" stop-color="#3A8AAC" stop-opacity="1"/><stop offset=".52" stop-color="#3A8BAC" stop-opacity="1"/><stop offset=".523" stop-color="#3A8DAC" stop-opacity="1"/><stop offset=".527" stop-color="#3A8EAC" stop-opacity="1"/><stop offset=".531" stop-color="#3B8FAC" stop-opacity="1"/><stop offset=".535" stop-color="#3B91AC" stop-opacity="1"/><stop offset=".539" stop-color="#3C92AD" stop-opacity="1"/><stop offset=".543" stop-color="#3C93AD" stop-opacity="1"/><stop offset=".547" stop-color="#3C94AD" stop-opacity="1"/><stop offset=".551" stop-color="#3C95AD" stop-opacity="1"/><stop offset=".555" stop-color="#3C97AD" stop-opacity="1"/><stop offset=".559" stop-color="#3C98AD" stop-opacity="1"/><stop offset=".563" stop-color="#3D99AD" stop-opacity="1"/><stop offset=".566" stop-color="#3D9AAD" stop-opacity="1"/><stop offset=".57" stop-color="#3D9BAD" stop-opacity="1"/><stop offset=".574" stop-color="#3D9DAD" stop-opacity="1"/><stop offset=".578" stop-color="#3E9EAD" stop-opacity="1"/><stop offset=".582" stop-color="#3E9FAD" stop-opacity="1"/><stop offset=".586" stop-color="#3EA0AE" stop-opacity="1"/><stop offset=".59" stop-color="#3EA1AE" stop-opacity="1"/><stop offset=".594" stop-color="#3FA3AE" stop-opacity="1"/><stop offset=".598" stop-color="#3FA4AE" stop-opacity="1"/><stop offset=".602" stop-color="#3FA5AE" stop-opacity="1"/><stop offset=".605" stop-color="#3FA6AE" stop-opacity="1"/><stop offset=".609" stop-color="#3FA8AE" stop-opacity="1"/><stop offset=".613" stop-color="#40AAAE" stop-opacity="1"/><stop offset=".617" stop-color="#40ABAE" stop-opacity="1"/><stop offset=".621" stop-color="#40ACAE" stop-opacity="1"/><stop offset=".625" stop-color="#41ADAE" stop-opacity="1"/><stop offset=".629" stop-color="#41AEAE" stop-opacity="1"/><stop offset=".633" stop-color="#42B0AE" stop-opacity="1"/><stop offset=".637" stop-color="#42B1AE" stop-opacity="1"/><stop offset=".641" stop-color="#42B3AE" stop-opacity="1"/><stop offset=".645" stop-color="#43B4AE" stop-opacity="1"/><stop offset=".648" stop-color="#43B5AE" stop-opacity="1"/><stop offset=".652" stop-color="#43B7AD" stop-opacity="1"/><stop offset=".656" stop-color="#43B8AD" stop-opacity="1"/><stop offset=".66" stop-color="#44B9AD" stop-opacity="1"/><stop offset=".664" stop-color="#44BAAD" stop-opacity="1"/><stop offset=".668" stop-color="#44BBAD" stop-opacity="1"/><stop offset=".672" stop-color="#44BDAD" stop-opacity="1"/><stop offset=".68" stop-color="#44BDAD" stop-opacity="1"/><stop offset=".688" stop-color="#44BEAD" stop-opacity="1"/><stop offset=".75" stop-color="#44BEAD" stop-opacity="1"/><stop offset="1" stop-color="#44BEAD" stop-opacity="1"/></linearGradient></defs><g clip-path="url(#14671448cb)"><g clip-path="url(#6f5f538bfe)"><g clip-path="url(#b52b5f47b8)"><g clip-path="url(#7af5726008)"><path fill="url(#fa03044da8)" fill-rule="nonzero" d="M 149.257812 301.316406 L 143.648438 319.449219 L 163.066406 325.457031 L 168.675781 307.320312 Z M 149.257812 301.316406"/></g></g></g></g><g clip-path="url(#37f4669c3d)"><g clip-path="url(#ddba39d02a)"><g clip-path="url(#c5c6a3d27a)"><g clip-path="url(#88fa90384d)"><path fill="url(#b709a878bc)" fill-rule="nonzero" d="M 212.695312 129.128906 L 203.207031 159.796875 L 235.9375 169.921875 L 245.421875 139.25 Z M 212.695312 129.128906"/></g></g></g></g><g clip-path="url(#e10363de19)"><g clip-path="url(#c2907111fe)"><g clip-path="url(#b3e9cf1d57)"><g clip-path="url(#ea9774bbcd)"><path fill="url(#4d4d9b793b)" fill-rule="nonzero" d="M 212.195312 41.359375 L 204.359375 66.695312 L 230.722656 74.847656 L 238.554688 49.515625 Z M 212.195312 41.359375"/></g></g></g></g><g clip-path="url(#9076e12b85)"><g clip-path="url(#cbca7993c2)"><g clip-path="url(#828fb1439d)"><g clip-path="url(#1dd7d49118)"><path fill="url(#48a2e12785)" fill-rule="nonzero" d="M 76.382812 -61.347656 L -41.847656 320.929688 L 340.414062 439.164062 L 458.640625 56.886719 Z M 76.382812 -61.347656"/></g></g></g></g><g clip-path="url(#a53bea711c)"><g clip-path="url(#4b2c31a642)"><g clip-path="url(#f4705d9043)"><g clip-path="url(#f53dc8a2fd)"><path fill="url(#51e6182c19)" fill-rule="nonzero" d="M 103.695312 193.316406 L 94.128906 224.246094 L 126.597656 234.289062 L 136.164062 203.359375 Z M 103.695312 193.316406"/></g></g></g></g><g clip-path="url(#a96e70c336)"><g clip-path="url(#2a84bb442a)"><g clip-path="url(#747398a23d)"><g clip-path="url(#e5df007667)"><path fill="url(#98a580add4)" fill-rule="nonzero" d="M 33.988281 -84.359375 L -97.519531 340.863281 L 294.601562 462.144531 L 426.109375 36.921875 Z M 33.988281 -84.359375"/></g></g></g></g></svg>